<?xml version="1.0" standalone="no"?>
<!DOCTYPE svg PUBLIC "-//W3C//DTD SVG 20010904//EN"
 "http://www.w3.org/TR/2001/REC-SVG-20010904/DTD/svg10.dtd">
<svg version="1.0" xmlns="http://www.w3.org/2000/svg"
 width="314.000000pt" height="314.000000pt" viewBox="0 0 314.000000 314.000000"
 preserveAspectRatio="xMidYMid meet">
<metadata>
Created by potrace 1.11, written by Peter Selinger 2001-2013
</metadata>
<g transform="translate(0.000000,314.000000) scale(0.100000,-0.100000)"
fill="#000000" stroke="none">
<path d="M2215 3116 c-47 -26 -78 -50 -114 -90 -14 -16 -31 -34 -36 -40 -13
-13 -75 -114 -75 -121 0 -3 -12 -23 -26 -45 -15 -22 -30 -57 -35 -78 -4 -20
-15 -62 -23 -92 -18 -61 -21 -187 -6 -240 5 -19 10 -66 12 -105 2 -94 -20
-151 -84 -212 -27 -27 -62 -60 -78 -75 -15 -16 -32 -28 -36 -28 -4 0 -24 -17
-43 -38 -20 -21 -48 -46 -63 -56 -16 -10 -28 -23 -28 -30 0 -12 -59 -51 -72
-48 -5 1 -8 -5 -8 -13 0 -8 -8 -19 -19 -24 -11 -6 -21 -26 -25 -50 -6 -38 -14
-45 -165 -154 -141 -101 -169 -118 -248 -142 -48 -15 -115 -36 -148 -46 -33
-10 -100 -30 -150 -44 -345 -99 -426 -132 -595 -242 -154 -100 -150 -94 -150
-212 0 -90 2 -100 18 -96 10 1 85 6 167 10 82 3 151 8 154 10 2 2 12 0 22 -5
12 -7 19 -6 22 3 4 8 6 8 6 0 1 -11 -213 -226 -278 -280 -17 -14 -31 -30 -31
-36 0 -13 54 35 260 232 96 92 211 198 255 236 44 37 93 82 108 98 19 19 34
27 47 24 12 -3 17 -1 14 5 -9 14 53 71 67 62 8 -4 9 -3 5 4 -4 7 -1 12 9 12 9
0 14 4 10 9 -7 12 24 43 36 36 5 -4 9 -1 9 5 0 13 69 88 94 102 16 8 18 7 13
-5 -4 -11 -2 -14 8 -11 10 4 12 -4 8 -38 -6 -46 -42 -108 -77 -131 -11 -8 -32
-24 -46 -36 -14 -12 -47 -41 -74 -64 -27 -23 -69 -60 -94 -82 -24 -22 -49 -44
-55 -50 -20 -17 -309 -277 -362 -326 -27 -25 -82 -76 -122 -112 -74 -68 -80
-71 -165 -70 -32 1 -36 -11 -10 -26 9 -6 11 -11 5 -11 -20 0 -15 -27 4 -32 47
-12 197 3 265 27 24 8 50 15 59 15 8 0 33 9 54 19 22 10 46 16 54 13 10 -4 13
-1 8 10 -6 16 20 35 31 23 3 -3 -1 -5 -8 -5 -7 0 -11 -3 -7 -6 3 -3 18 2 34
13 15 10 47 27 70 37 23 11 40 23 37 27 -3 5 1 9 8 9 13 0 91 49 118 73 8 8
27 17 42 21 16 3 28 11 28 16 0 6 6 10 13 10 6 0 27 13 46 29 19 16 46 35 60
42 14 8 40 23 56 36 17 12 37 23 45 25 8 2 17 5 20 8 21 21 89 65 151 97 66
34 128 54 213 68 16 3 34 9 40 14 11 9 37 12 104 13 17 0 32 6 32 12 0 6 5 4
10 -4 7 -11 27 -15 72 -15 112 0 288 10 288 15 0 4 21 5 48 4 26 0 68 -2 94
-3 56 -1 99 -35 117 -93 7 -20 16 -38 20 -40 8 -3 61 -131 67 -161 1 -10 15
-32 29 -48 14 -17 25 -34 25 -39 0 -4 20 -21 45 -37 25 -15 45 -33 45 -40 0
-9 16 -18 70 -38 3 -1 17 -7 32 -13 15 -6 49 -14 75 -18 27 -3 52 -9 58 -12
15 -9 75 -10 75 -1 0 5 15 9 33 9 17 0 50 9 72 19 22 10 52 21 68 25 34 8 105
62 158 118 l39 42 -1 181 c0 130 -3 173 -10 155 -13 -32 -71 -124 -81 -128 -5
-2 -8 -8 -8 -14 0 -12 -55 -68 -67 -68 -5 0 -20 -11 -33 -25 -13 -14 -27 -25
-32 -25 -5 0 -28 -9 -51 -20 -58 -29 -113 -34 -183 -20 -59 12 -144 54 -144
71 0 4 -6 6 -12 4 -15 -6 -72 60 -83 95 -4 14 -14 33 -23 43 -10 12 -16 38
-16 80 -1 52 4 70 29 112 16 28 36 62 44 77 7 16 17 28 22 28 5 0 15 13 24 29
8 16 31 39 52 52 21 13 40 26 43 30 3 4 22 10 43 14 21 4 45 14 54 23 19 20
189 29 177 10 -5 -8 -2 -9 9 -5 10 3 17 2 17 -3 0 -6 10 -10 23 -10 42 -1 129
-71 163 -132 18 -32 34 -65 37 -75 3 -10 5 63 6 162 1 149 -2 184 -15 203 -8
12 -21 22 -29 22 -7 0 -15 4 -17 8 -5 12 -78 52 -122 67 -64 20 -144 24 -236
10 -72 -11 -87 -10 -96 1 -13 17 -40 17 -118 0 -54 -11 -87 -33 -98 -66 -2 -5
-30 -14 -63 -20 -33 -6 -71 -15 -85 -21 -14 -6 -74 -22 -135 -35 -60 -12 -146
-33 -190 -45 -44 -11 -96 -25 -115 -29 -19 -5 -51 -13 -70 -18 -19 -5 -60 -15
-90 -22 -66 -15 -80 -25 -80 -56 0 -22 -2 -22 -32 -12 -43 14 -92 49 -81 57 4
3 17 23 28 44 11 20 24 37 30 38 32 2 60 11 63 19 2 6 12 10 21 10 10 0 28 9
41 20 13 11 28 20 34 20 6 0 17 9 24 20 7 11 17 20 22 20 9 0 64 38 130 90 14
11 30 20 36 20 6 0 19 9 29 20 10 11 22 20 26 20 5 0 20 10 35 23 14 12 29 21
32 21 4 -1 13 7 20 17 6 9 28 23 47 29 19 6 35 16 35 21 0 5 3 8 8 7 11 -4 64
33 90 61 13 15 20 19 16 11 -5 -11 -2 -10 13 3 12 10 40 20 63 22 23 2 50 10
59 18 9 8 31 18 49 22 17 3 32 12 32 20 0 7 11 20 25 29 14 9 25 23 25 30 0
21 52 76 71 76 10 0 29 15 44 33 14 17 43 52 63 76 20 24 44 56 53 72 9 16 22
36 29 44 7 8 9 15 6 15 -4 0 -1 7 8 15 8 9 18 31 22 49 3 19 14 43 24 53 26
29 32 73 31 246 -1 128 -4 169 -20 218 -29 86 -67 151 -116 198 l-43 41 -209
-1 c-195 0 -210 -2 -248 -23z m305 -188 c86 -24 159 -80 186 -143 35 -84 3
-221 -81 -350 -28 -42 -67 -85 -77 -85 -5 0 -24 -14 -42 -31 -68 -62 -101 -73
-214 -74 -88 0 -106 3 -116 18 -7 9 -20 17 -29 17 -9 0 -20 6 -24 14 -4 7 -18
18 -30 25 -13 6 -23 18 -23 26 0 9 -4 23 -9 33 -12 24 -30 111 -29 144 0 15 7
29 14 32 8 3 14 18 14 34 0 50 54 143 126 217 84 85 111 105 141 105 13 0 23
4 23 8 0 5 21 9 47 11 26 1 49 3 50 5 6 6 40 4 73 -6z m-1251 -1548 c10 -5 22
-17 25 -27 5 -13 0 -11 -21 7 -15 14 -30 26 -32 28 -13 7 13 0 28 -8z"/>
<path d="M2820 2980 c0 -5 5 -10 11 -10 5 0 7 5 4 10 -3 6 -8 10 -11 10 -2 0
-4 -4 -4 -10z"/>
<path d="M910 1201 c0 -6 4 -13 10 -16 6 -3 7 1 4 9 -7 18 -14 21 -14 7z"/>
<path d="M21 442 c-17 -31 -13 -40 5 -14 9 13 14 26 11 29 -3 2 -10 -4 -16
-15z"/>
</g>
</svg>
